<?xml version="1.0" encoding="utf-8"?>
<!-- Generator: Adobe Illustrator 19.2.1, SVG Export Plug-In . SVG Version: 6.00 Build 0)  -->
<svg version="1.1" id="layer" xmlns="http://www.w3.org/2000/svg" xmlns:xlink="http://www.w3.org/1999/xlink" x="0px" y="0px"
	 viewBox="0 0 652 652" style="enable-background:new 0 0 652 652;" xml:space="preserve">
<style type="text/css">
	.st0{fill:url(#SVGID_1_);}
	.st1{fill:url(#SVGID_2_);}
	.st2{fill:url(#SVGID_3_);}
	.st3{fill:url(#SVGID_4_);}
	.st4{fill:url(#SVGID_5_);}
	.st5{fill:url(#SVGID_6_);}
	.st6{fill:url(#SVGID_7_);}
	.st7{fill:url(#SVGID_8_);}
	.st8{fill:url(#SVGID_9_);}
	.st9{fill:#3C3C41;}
</style>
<linearGradient id="SVGID_1_" gradientUnits="userSpaceOnUse" x1="165.2723" y1="1083.9346" x2="160.6618" y2="1057.7788" gradientTransform="matrix(1 0 0 1 0 -778)">
	<stop  offset="0" style="stop-color:#646469"/>
	<stop  offset="0.458" style="stop-color:#A9A9AE"/>
	<stop  offset="0.82" style="stop-color:#D9D9DE"/>
	<stop  offset="1" style="stop-color:#EBEBF0"/>
</linearGradient>
<path class="st0" d="M166.8,305.5L173,280h-13.9l-6.3,25.5"/>
<linearGradient id="SVGID_2_" gradientUnits="userSpaceOnUse" x1="58.0485" y1="1095.0326" x2="132.3119" y2="1032.7159" gradientTransform="matrix(1 0 0 1 0 -778)">
	<stop  offset="0" style="stop-color:#E6F0F5"/>
	<stop  offset="6.200000e-002" style="stop-color:#CBE4EF"/>
	<stop  offset="0.198" style="stop-color:#96CDE4"/>
	<stop  offset="0.335" style="stop-color:#68B9DA"/>
	<stop  offset="0.472" style="stop-color:#42A9D1"/>
	<stop  offset="0.607" style="stop-color:#259CCB"/>
	<stop  offset="0.741" style="stop-color:#1193C7"/>
	<stop  offset="0.873" style="stop-color:#048EC4"/>
	<stop  offset="1" style="stop-color:#008CC3"/>
</linearGradient>
<path class="st1" d="M147,305.5l6.3-25.5H26.9l22,25.5"/>
<linearGradient id="SVGID_3_" gradientUnits="userSpaceOnUse" x1="19.9986" y1="1054.8068" x2="50.1088" y2="1085.9862" gradientTransform="matrix(1 0 0 1 0 -778)">
	<stop  offset="0" style="stop-color:#E6F0F5"/>
	<stop  offset="9.200000e-002" style="stop-color:#DDECF3"/>
	<stop  offset="0.241" style="stop-color:#C5E1EE"/>
	<stop  offset="0.43" style="stop-color:#9DD0E5"/>
	<stop  offset="0.65" style="stop-color:#66B8D9"/>
	<stop  offset="0.895" style="stop-color:#209ACA"/>
	<stop  offset="1" style="stop-color:#008CC3"/>
</linearGradient>
<path class="st2" d="M48.9,305.5l-22-25.5v8.1l18.4,17.5"/>
<g>
	
		<linearGradient id="SVGID_4_" gradientUnits="userSpaceOnUse" x1="156.9225" y1="1116.7452" x2="152.3093" y2="1090.59" gradientTransform="matrix(1 0 0 1 0 -778)">
		<stop  offset="0" style="stop-color:#646469"/>
		<stop  offset="0.458" style="stop-color:#A9A9AE"/>
		<stop  offset="0.82" style="stop-color:#D9D9DE"/>
		<stop  offset="1" style="stop-color:#EBEBF0"/>
	</linearGradient>
	<path class="st3" d="M158.2,338.7l6.7-25.5h-13.9l-6.7,25.5"/>
	
		<linearGradient id="SVGID_5_" gradientUnits="userSpaceOnUse" x1="60.7973" y1="1103.4539" x2="145.2688" y2="1103.4539" gradientTransform="matrix(1 0 0 1 0 -778)">
		<stop  offset="0" style="stop-color:#E6F0F5"/>
		<stop  offset="0.105" style="stop-color:#C0DEEA"/>
		<stop  offset="0.283" style="stop-color:#86C2DA"/>
		<stop  offset="0.454" style="stop-color:#56ABCC"/>
		<stop  offset="0.616" style="stop-color:#3199C2"/>
		<stop  offset="0.765" style="stop-color:#168DBA"/>
		<stop  offset="0.898" style="stop-color:#0685B6"/>
		<stop  offset="1" style="stop-color:#0082B4"/>
	</linearGradient>
	<path class="st4" d="M138.5,338.2l6.7-25.5H61l22.4,25.5"/>
	
		<linearGradient id="SVGID_6_" gradientUnits="userSpaceOnUse" x1="56.3328" y1="1090.3367" x2="84.6883" y2="1116.7788" gradientTransform="matrix(1 0 0 1 0 -778)">
		<stop  offset="0" style="stop-color:#E6F0F5"/>
		<stop  offset="0.16" style="stop-color:#C7E1EC"/>
		<stop  offset="0.512" style="stop-color:#77BBD6"/>
		<stop  offset="1" style="stop-color:#0082B4"/>
	</linearGradient>
	<path class="st5" d="M83.4,338.2L61,312.7v7.6l19.3,18.4"/>
</g>
<g>
	
		<linearGradient id="SVGID_7_" gradientUnits="userSpaceOnUse" x1="148.8566" y1="1149.4594" x2="144.247" y2="1123.3157" gradientTransform="matrix(1 0 0 1 0 -778)">
		<stop  offset="0" style="stop-color:#646469"/>
		<stop  offset="0.458" style="stop-color:#A9A9AE"/>
		<stop  offset="0.82" style="stop-color:#D9D9DE"/>
		<stop  offset="1" style="stop-color:#EBEBF0"/>
	</linearGradient>
	<path class="st6" d="M150.2,371.4l6.7-25.5H143l-6.7,25.5"/>
	
		<linearGradient id="SVGID_8_" gradientUnits="userSpaceOnUse" x1="94.1564" y1="1129.0063" x2="133.5417" y2="1138.1005" gradientTransform="matrix(1 0 0 1 0 -778)">
		<stop  offset="0" style="stop-color:#E6F0F5"/>
		<stop  offset="0.104" style="stop-color:#C6E0EB"/>
		<stop  offset="0.348" style="stop-color:#80BDD6"/>
		<stop  offset="0.567" style="stop-color:#49A2C5"/>
		<stop  offset="0.755" style="stop-color:#218EB9"/>
		<stop  offset="0.903" style="stop-color:#0981B2"/>
		<stop  offset="0.994" style="stop-color:#007DAF"/>
	</linearGradient>
	<path class="st7" d="M130.5,371.4l6.3-25.5H95.1l22.4,25.5"/>
	
		<linearGradient id="SVGID_9_" gradientUnits="userSpaceOnUse" x1="91.9995" y1="1124.3567" x2="121.2126" y2="1151.5983" gradientTransform="matrix(1 0 0 1 0 -778)">
		<stop  offset="0" style="stop-color:#E6F0F5"/>
		<stop  offset="0.332" style="stop-color:#90C5DB"/>
		<stop  offset="0.657" style="stop-color:#439EC3"/>
		<stop  offset="0.886" style="stop-color:#1386B5"/>
		<stop  offset="1" style="stop-color:#007DAF"/>
	</linearGradient>
	<path class="st8" d="M117.9,371.4l-22.4-25.5v7.2l19.3,18.4"/>
</g>
<path class="st9" d="M627,298.3l-2.2,8.5c-0.9,4-3.1,5.4-7.6,5.4h-13.4c-5.8,0-8.1,0.4-9.4,1.8c-1.3,1.3-1.8,3.1-1.8,5.4
	s0.9,3.1,4.5,4l13.4,4c9.4,2.7,12.1,5.4,12.1,12.5c0,7.2-2.7,18.4-6.7,23.7c-4,4.9-9,7.2-16.6,7.2H566c-2.7,0-3.6-1.8-3.1-4l4-16.6
	h4c0.9,3.6,3.6,4.9,9,4.9h13c4.9,0,7.2-0.9,8.5-2.2c1.3-1.3,2.2-4,2.2-5.8c0-3.1-0.9-4-7.6-5.4l-13.4-3.6
	c-7.2-1.8-10.3-5.8-10.3-11.7c0-5.8,2.7-13.9,5.8-19.3c3.6-6.3,9.4-9,19.3-9H627L627,298.3z M328.1,316.3c0,5.4-2.2,14.8-4,18.4
	c-1.3,2.7-3.1,3.6-9.9,3.6h-31.4l-1.3,5.8c-0.4,1.3-0.4,3.1-0.4,4.5c0,2.7,0.9,4.9,3.1,6.3c1.8,1.3,5.4,1.8,11.2,1.8
	c12.5,0,15.2-1.8,19.3-7.2h4l-2.7,9.9c-1.8,7.2-2.2,8.5-4.9,9.9c-3.6,1.8-10.3,2.7-21.1,2.7c-9.9,0-16.1-0.9-19.7-2.7
	c-5.4-2.7-8.5-9-8.5-17c0-13.4,6.7-34.1,13.4-42.6c6.7-8.5,15.2-11.7,30-11.7C321.3,297.4,328.5,303.3,328.1,316.3z M312.4,318.5
	c0-5.4-3.1-7.6-10.3-7.6c-9.4,0-13,3.6-16.1,15.2H311C311.9,322.5,312.4,320.7,312.4,318.5L312.4,318.5z M560.2,316.3
	c0,5.4-2.2,14.8-4,18.4c-1.3,2.7-3.6,3.1-10.3,3.1h-31.4l-1.3,5.8c-0.4,1.3-0.4,3.1-0.4,4.5c0,2.7,0.9,4.9,3.1,6.3
	c1.8,1.3,5.4,1.8,11.2,1.8c12.5,0,15.2-1.8,19.3-7.2h4l-2.7,9.9c-1.8,7.2-2.2,8.5-4.9,9.9c-3.6,1.8-10.3,2.7-21.1,2.7
	c-9.9,0-16.1-0.9-19.7-2.7c-5.4-2.7-8.5-9-8.5-17c0-13.4,6.7-34.1,13.4-42.6c6.7-8.5,15.2-11.7,30-11.7
	C553.5,297.4,560.6,303.3,560.2,316.3L560.2,316.3z M544.5,318.5c0-5.4-3.1-7.6-10.3-7.6c-9.4,0-13,3.6-16.1,15.2h25.1
	C544.1,322.5,544.5,320.7,544.5,318.5L544.5,318.5z M264.4,284c0.4-2.2-0.9-4-3.1-4h-20.2l-0.4,2.7c3.6,0.9,2.2,4.9,1.8,6.7
	c-0.9,4-6.3,24.2-6.3,24.2h-27.3l7.6-29.6c0.4-2.2-0.4-4-3.1-4h-20.2l-0.4,2.7c3.6,0.9,2.2,4.9,1.8,6.7
	c-2.7,12.1-20.2,78.4-20.2,78.4c-0.4,1.8,0.4,4,3.1,4h20.2l0.4-2.7c-3.6-0.9-2.2-4.9-1.8-6.7c0.4-1.8,8.5-34.1,8.5-34.1h27.3
	l-10.3,39.4c-0.4,1.8,0.4,4,3.1,4h20.2l0.4-2.7c-3.6-0.9-2.2-4.9-1.8-6.7C244.7,360.6,264.4,284,264.4,284L264.4,284z M475.9,297.9
	h-9.9c-4.9,0-7.6,0.9-10.8,5.8l-3.6,5.8c0.4-5.8-2.7-11.7-12.5-11.7h-9c-7.6,0-9.4,3.1-11.2,5.4l-4,5.4l1.8-6.3c0.4-1.8-0.4-4-3.1-4
	h-17.9l-0.9,2.7c1.8,0.4,2.7,1.8,2.7,3.1c0,0.9,0,1.3-0.4,2.7l-15.7,60.9c-0.4,1.8,0.4,4,3.1,4h17.9l0.4-2.7
	c-1.8-0.4-2.2-1.8-2.2-2.7c0-0.4,0-1.3,0.4-3.1c0,0,10.3-38.1,10.3-38.5c2.2-9.9,4.9-10.8,10.3-11.7c0.9,0,1.8,0,3.6,0
	c4.9,0,6.7,3.1,5.8,6.7c0,0.9-12.1,48.4-12.1,48.4c-0.4,1.8,0.4,4,3.1,4h17.9l0.4-2.7c-1.8-0.4-2.2-1.8-2.2-2.7c0-0.4,0-1.3,0.4-3.1
	l10.3-38.5c2.7-9.9,4.9-10.8,10.3-11.7c0.9,0,1.8,0,3.6,0c5.4,0,6.7,3.1,5.8,6.7c0,0.4-12.1,48.4-12.1,48.4c-0.4,1.8,0.4,4,3.1,4
	h17.9l0.4-2.7c-1.8-0.4-2.2-1.8-2.2-2.7c0-0.4,0-1.3,0.4-3.1c0,0,12.1-48.4,12.5-50.6C489.8,307.8,489.8,297.9,475.9,297.9
	L475.9,297.9z M375.6,298.3c-4.5,0-4.9,0-7.2,3.1l-5.4,7.2l1.8-6.3c0.4-1.8-0.4-4-3.1-4h-17.9l-0.4,2.7c1.8,0.4,2.2,1.8,2.2,2.7
	c0,0.4,0,1.3-0.4,3.1l-15.7,60.9c-0.4,1.8,0.4,4,3.1,4h17.9l0.4-2.7c-1.8-0.4-2.2-1.8-2.2-2.7c0-0.4,0-1.3,0.4-3.1l10.3-39
	c2.2-9,4.5-10.8,12.5-10.8h7.2c5.4,0,7.2-1.3,8.1-5.4l2.7-9.4L375.6,298.3L375.6,298.3z"/>
</svg>
